HIERARCHY
ROOT pelvis
{
	OFFSET 0.00 0.00 0.00
	CHANNELS 6 Xposition Yposition Zposition Zrotation Xrotation Yrotation
	JOINT lfemur
	{
		OFFSET 0 0.102435 0
		CHANNELS 3 Zrotation Xrotation Yrotation
		JOINT ltibia
		{
			OFFSET 0 0 -0.433964
			CHANNELS 3 Zrotation Xrotation Yrotation
			JOINT lfoot
			{
				OFFSET 0 0 -0.408841
				CHANNELS 3 Zrotation Xrotation Yrotation
				JOINT ltoes
				{
					OFFSET 0.105892 0 -0.009733
					CHANNELS 3 Zrotation Xrotation Yrotation
					End Site5
					{
						OFFSET 1e-005 1e-005 1e-005
					}
				}
			}
		}
	}
	JOINT rfemur
	{
		OFFSET 0 -0.102435 0
		CHANNELS 3 Zrotation Xrotation Yrotation
		JOINT rtibia
		{
			OFFSET 0 0 -0.435577
			CHANNELS 3 Zrotation Xrotation Yrotation
			JOINT rfoot
			{
				OFFSET 0 0 -0.384964
				CHANNELS 3 Zrotation Xrotation Yrotation
				JOINT rtoes
				{
					OFFSET 0.092084 0 -0.017313
					CHANNELS 3 Zrotation Xrotation Yrotation
					End Site10
					{
						OFFSET 1e-005 1e-005 1e-005
					}
				}
			}
		}
	}
	JOINT lowerback
	{
		OFFSET -0.05 0 0.099766
		CHANNELS 3 Zrotation Xrotation Yrotation
		JOINT upperback
		{
			OFFSET 0.021227 0 0.177904
			CHANNELS 3 Zrotation Xrotation Yrotation
			JOINT lclavicle
			{
				OFFSET 0 0 0.169023
				CHANNELS 3 Zrotation Xrotation Yrotation
				JOINT lhumerus
				{
					OFFSET 0 0.13809 0.008263
					CHANNELS 3 Zrotation Xrotation Yrotation
					JOINT lradius
					{
						OFFSET 0 0 -0.278741
						CHANNELS 3 Zrotation Xrotation Yrotation
						JOINT lhand
						{
							OFFSET 0 0 -0.226576
							CHANNELS 3 Zrotation Xrotation Yrotation
							End Site17
							{
								OFFSET 1e-005 1e-005 1e-005
							}
						}
					}
				}
			}
			JOINT rclavicle
			{
				OFFSET 0 0 0.169023
				CHANNELS 3 Zrotation Xrotation Yrotation
				JOINT rhumerus
				{
					OFFSET 0 -0.145722 -0.001526
					CHANNELS 3 Zrotation Xrotation Yrotation
					JOINT rradius
					{
						OFFSET 0 0 -0.281968
						CHANNELS 3 Zrotation Xrotation Yrotation
						JOINT rhand
						{
							OFFSET 0 0 -0.23225
							CHANNELS 3 Zrotation Xrotation Yrotation
							End Site22
							{
								OFFSET 1e-005 1e-005 1e-005
							}
						}
					}
				}
			}
			JOINT LowerNeck
			{
				OFFSET 0 0 0.169023
				CHANNELS 3 Zrotation Xrotation Yrotation
				JOINT Neck
				{
					OFFSET 0.000307 0.00093 0.101417
					CHANNELS 3 Zrotation Xrotation Yrotation
					End Site25
					{
						OFFSET 1e-005 1e-005 1e-005
					}
				}
			}
		}
	}
}
MOTION
Frames: 14
Frame Time: 0.033368
0.565318	-0.077468	0.836597	92.2837	2.78361	-0.139522	-2.98138	-11.1646	12.9551	3.23022	0.422278	7.43999	4.32014	4.03282	-2.04781	-7e-006	2e-006	11.5273	-4.9157	0.745102	-25.5975	-0.418269	-0.024427	3.3425	-1.17371	-1.76545	11.3755	-8e-006	-1e-006	8.55086	-2.1364	-4.89478	-0.778772	-8.752	2.23952	0.191616	-0.622826	-10.5362	-0.113892	-16.4958	36.428	-2.61556	8.56141	-5.66363	-33.2461	-1.1e-005	16.2406	-11.7966	6.34272	9.11863	-1.00921	38.0473	-12.5141	25.0044	-10.2609	1.24253	-6.83077	-3e-006	-6.8268	-6.30137	-11.0949	3.72794	24.1302	23.663	-11.0044	-37.3999
0.568136	-0.033648	0.826292	93.7583	2.56057	-0.374716	-1.28249	-9.71582	15.3492	0.60445	0.105552	9.90514	3.45973	3.10109	-3.1775	1e-006	-2e-006	10.4933	-5.04611	0.957885	-26.7868	-0.725742	-0.080125	6.29969	-1.40408	-2.13158	11.6155	-2e-006	-1.13329e-014	8.93077	-2.35291	-5.17629	-0.488913	-9.38385	2.60328	0.0952329	-0.7635	-10.905	-0.144448	-16.4891	36.8394	-3.07163	8.73482	-5.80253	-33.3456	-6e-006	16.8403	-12.2911	6.07413	9.25318	-0.980285	37.5855	-11.9768	25.9424	-11.494	1.28171	-6.27745	-5e-006	-6.30977	-6.08942	-10.7602	4.15761	24.1387	22.8682	-10.7839	-37.7476
0.573207	0.015534	0.817265	94.5956	1.46357	-0.993239	0.254873	-7.12418	17.8683	-1.4763	-0.346577	13.2087	2.46047	2.2238	-2.91697	4e-006	1.86106e-014	8.72011	0.833635	0.051742	-25.9801	-7.9093	-1.50336	10.694	-1.93091	-3.0662	12.7775	-3e-006	-1e-006	9.16147	-2.46614	-4.56771	-0.437667	-9.60391	2.9636	0.105478	-0.256804	-11.0072	-0.049033	-17.6549	36.3797	-2.48043	8.90615	-5.73315	-32.5164	-1e-006	16.5527	-12.3775	5.929	8.99602	-0.930333	37.1544	-11.3017	26.5419	-12.2676	1.19263	-5.46775	-0	-5.20151	-5.50951	-10.3073	4.30934	24.079	22.2151	-10.4692	-37.5448
0.580423	0.068034	0.811134	95.0148	-0.860499	-1.27177	1.46798	-3.04752	19.148	-2.87022	-0.93292	17.9911	1.09353	1.07649	-0.454802	-5e-006	3e-006	5.85587	5.57464	1.64381	-24.1317	-11.231	-2.43207	12.0629	-1.88214	-3.91418	19.2939	-6e-006	6.56155e-014	9.71099	-2.39669	-2.45107	-0.790635	-9.42639	3.1854	-0.729065	0.613437	-11.3022	0.120227	-19.6942	35.2759	-0.515638	8.86031	-5.33652	-30.8213	-7e-006	15.0317	-12.1363	5.80331	8.98486	-0.909359	36.3402	-10.883	27.6921	-12.1461	1.08493	-5.02774	1.2e-005	-4.03262	-4.83373	-10.2633	3.95996	24.2704	21.877	-9.90946	-36.7028
0.586867	0.118654	0.808768	95.4474	-3.04163	-0.272291	1.61774	0.448756	16.7285	-3.58993	-1.74894	25.9414	0.192155	0.239143	6.21699	8e-006	-5e-006	1.53566	3.36758	5.41783	-25.1101	-5.03915	-1.64588	18.042	-3.39436	-7.05506	19.2238	4e-006	1e-006	12.4658	-2.34	-0.254739	-2.38573	-9.20036	3.35769	-1.45834	1.54806	-11.6461	0.312574	-21.1965	33.5566	1.54143	8.89262	-4.85841	-28.4266	1e-006	13.2205	-11.6701	5.70957	9.05125	-0.901128	36.3556	-10.827	28.3817	-12.6661	0.999786	-4.43953	-6e-006	-2.90745	-4.30766	-9.99131	3.73141	23.7828	21.2755	-9.36958	-35.6183
0.592891	0.166897	0.812584	95.6159	-5.43913	0.389851	1.75441	3.89449	12.0965	-4.31134	-3.19159	36.4458	0.183267	0.35407	17.6334	-3e-006	-1.90733e-015	-1.25393	5.12202	8.18582	-24.6667	-5.4326	-2.1736	21.7425	-4.13928	-7.35794	15.5295	3e-006	1e-006	13.2336	-2.45084	2.14492	-3.69475	-8.79212	3.52518	-1.17683	2.03736	-11.1188	0.393052	-21.7633	30.8571	3.17344	9.63833	-4.70093	-25.7611	5e-006	11.8253	-10.5837	5.82857	8.19047	-0.833181	36.5223	-11.2558	26.9168	-13.6928	0.915398	-3.75162	-1e-005	-2.37554	-3.67115	-9.67967	4.08721	23.0229	20.6313	-9.75551	-35.2329
0.598009	0.211147	0.81954	95.5906	-7.42607	0.511394	1.88899	6.44978	6.44512	-3.47154	-3.71141	46.8576	0.233568	0.798323	28.6914	-8e-006	6e-006	4.04909	8.24782	10.2571	-21.9055	-8.23222	-3.11198	20.5679	-3.7925	-6.16842	13.329	-6e-006	-3.11829e-014	13.1376	-2.3429	4.1608	-3.9983	-8.11595	3.44015	-0.949133	1.96013	-10.282	0.349999	-23.1404	28.1996	5.12366	11.7245	-4.9618	-22.6242	-2e-006	9.96505	-9.11098	6.08911	7.53131	-0.801052	36.3739	-12.5236	24.9325	-14.8364	1.11066	-4.18516	-8e-006	-2.78835	-3.31761	-9.83071	4.46425	22.5631	20.0529	-9.88733	-35.453
0.600624	0.250434	0.826643	95.8661	-7.60096	0.754116	2.05138	6.62837	-0.168519	-1.113	-1.64443	55.9016	0.956718	3.20099	28.3498	-1.6e-005	1.1e-005	7.58677	8.15769	11.1797	-18.2285	-8.64388	-2.85929	18.1667	-3.88639	-5.85295	11.3291	-2e-006	-1e-006	13.1099	-1.91664	4.37618	-3.81292	-7.50892	2.9452	-1.23921	1.66086	-9.44803	0.27271	-25.8524	26.0688	7.17145	14.1516	-4.9317	-18.8269	-6e-006	6.99782	-7.75416	6.21382	7.93294	-0.860908	37.2121	-14.4167	23.4263	-16.4705	1.50189	-5.06608	4e-006	-3.80953	-4.1151	-10.2048	4.91386	22.1967	19.3322	-9.28255	-35.8132
0.601813	0.287968	0.833773	96.4913	-6.67102	0.838578	1.67329	5.20052	-6.68377	1.09033	2.02724	61.7193	2.71376	6.50798	22.3052	8e-006	-5e-006	7.81944	5.19144	11.2623	-13.968	-6.89634	-2.00527	16.1356	-4.13026	-5.79296	9.41881	2e-006	1e-006	13.0958	-1.55312	3.40893	-3.38957	-6.97976	2.27966	-1.53022	1.34248	-8.80945	0.205636	-27.3715	24.4603	8.76518	13.3669	-3.91883	-16.0458	-1e-005	3.21219	-5.92182	6.22195	8.98546	-0.975512	38.9086	-16.8161	22.1023	-18.0691	1.79188	-5.47465	-9e-006	-5.05703	-5.18768	-10.4321	5.3333	22.1661	18.3025	-8.40204	-36.5593
0.602172	0.325445	0.840698	96.6041	-5.29247	0.795851	1.55438	3.13367	-12.4375	3.09043	6.16183	63.2976	3.91871	7.79185	18.1941	7e-006	2e-006	8.20556	2.9064	10.5561	-9.72223	-4.73066	-1.17433	13.9098	-4.65726	-6.24629	8.1766	-5e-006	1e-006	13.0078	-1.1317	2.12658	-3.26454	-6.11277	1.48701	-1.2674	1.11325	-8.40347	0.162712	-27.013	23.3324	10.1891	10.3605	-2.83526	-15.1395	9e-006	0.308682	-4.61619	6.44092	9.95821	-1.1184	40.4605	-19.5681	20.6321	-19.0905	2.0792	-5.98441	-3e-006	-6.6049	-5.44806	-10.9153	5.51674	22.2793	17.6196	-7.78392	-37.4173
0.60232	0.36234	0.846068	95.551	-3.82486	0.916224	2.39398	0.84725	-17.3619	4.44337	8.09556	61.11	5.02008	8.61932	14.6244	-0	-2e-006	8.56678	2.99153	9.50698	-6.13464	-4.14654	-0.843513	11.4786	-4.75494	-6.19681	7.38253	2e-006	1.67435e-014	12.9383	-0.316845	1.04213	-3.48798	-4.72503	0.554766	-0.750168	1.1281	-8.10764	0.159122	-26.2369	22.5367	11.9161	8.50014	-2.36485	-15.4343	-8e-006	-1.0889	-4.24842	6.90961	10.3922	-1.25228	41.5302	-22.3588	18.8312	-18.8028	2.3594	-6.89416	-0	-7.69103	-5.29063	-11.668	5.45298	22.2793	17.4791	-7.48782	-38.0812
0.602234	0.399069	0.848992	93.7202	-2.60592	0.803862	3.75686	-1.21018	-20.9326	5.46381	8.02247	55.5743	5.49823	8.4339	11.7233	-1.7e-005	1.2e-005	8.5775	5.26319	8.67308	-2.58546	-5.56887	-0.864783	8.7992	-4.45412	-5.65786	6.68707	4e-006	2e-006	12.9063	0.632068	0.53616	-3.32935	-3.03161	-0.503707	-0.222942	1.55147	-8.01557	0.216392	-25.7781	22.1253	13.8136	8.63408	-2.5187	-16.1411	1e-005	-1.15064	-4.35596	7.48224	10.3383	-1.3502	42.4891	-25.1929	16.6874	-17.5427	2.4342	-7.65211	1e-006	-7.86264	-5.56503	-11.8159	5.07315	22.0444	17.1825	-6.93339	-38.9196
0.601541	0.436193	0.849206	91.6637	-1.80147	0.410623	4.89174	-2.7342	-23.1639	6.76887	7.3866	47.2864	5.31473	7.61959	9.94714	1.5e-005	-3e-006	8.58156	8.5237	8.34561	0.792605	-7.32448	-0.892395	6.90874	-4.50435	-5.5187	5.67738	-8e-006	7.10171e-014	12.7074	1.38539	0.722131	-2.77493	-1.21949	-1.56884	0.407425	2.30234	-8.25391	0.330699	-25.4819	22.0434	15.6013	9.79636	-3.01492	-16.9415	-5e-006	0.161073	-5.02617	8.14042	10.0454	-1.42925	42.9698	-28.2364	14.3643	-17.3509	2.55804	-8.12958	2e-006	-8.0592	-6.17972	-11.286	4.54204	21.5012	16.604	-6.25812	-39.8059
0.600309	0.473851	0.84703	89.7579	-1.54605	-0.0350001	4.93574	-3.35262	-24.3979	8.7525	6.67047	37.0337	4.44507	6.2648	9.53468	7e-006	-1e-006	8.77064	10.7315	8.6009	4.09215	-7.99915	-0.796739	5.65111	-4.78235	-5.61659	4.47564	-0	1e-006	12.4889	1.88787	1.57181	-2.18036	0.538393	-2.4401	1.14624	2.9506	-8.8559	0.454639	-24.8642	22.1341	17.1931	10.7484	-3.47944	-17.7298	5e-006	1.97751	-5.95311	8.84678	9.69024	-1.50071	42.5544	-31.4141	12.0342	-18.7426	2.94239	-8.60263	1.2e-005	-8.77341	-6.48122	-10.6127	3.85462	20.8428	15.9597	-5.65189	-40.582
